<svg id="Line" height="512" viewBox="0 0 64 64" width="512" xmlns="http://www.w3.org/2000/svg"><path d="m38 48h-7a1 1 0 0 0 -1 1v14h9v-14a1 1 0 0 0 -1-1z" fill="#c4a2fc"/><path d="m48 40v6a1 1 0 0 0 1 1h11v-8h-11a1 1 0 0 0 -1 1z" fill="#c4a2fc"/><path d="m62 61h-2v-12h-11a3 3 0 0 1 -3-3v-6a3 3 0 0 1 3-3h11v-1.063a2.992 2.992 0 0 0 -1.08-2.3l-1.926-1.6a.214.214 0 0 0 .006-.037v-7a3 3 0 0 0 -3-3h-2a3 3 0 0 0 -3 3v.365l-6.08-5.065a3 3 0 0 0 -3.84 0l-16 13.333a2.992 2.992 0 0 0 -1.08 2.3v25.067h-2a1 1 0 0 0 0 2h8v-14a3 3 0 0 1 3-3h7a3 3 0 0 1 3 3v14h21a1 1 0 0 0 0-2z" fill="#c4a2fc"/><g fill="#151a6a"><path d="m23.878 44.749a3 3 0 0 0 4.244 0l11.313-11.314a19 19 0 1 0 -26.87 0zm-9.9-36.77a17 17 0 0 1 24.043 24.042l-11.314 11.313a1.023 1.023 0 0 1 -1.414 0l-11.314-11.313a17 17 0 0 1 0-24.042z"/><path d="m2 21h2a1 1 0 0 0 0-2h-2a1 1 0 0 0 0 2z"/><path d="m50 19h-2a1 1 0 0 0 0 2h2a1 1 0 0 0 0-2z"/><path d="m5.292 27.5-1.848.766a1 1 0 0 0 .765 1.847l1.849-.765a1 1 0 0 0 -.766-1.848z"/><path d="m46.708 12.505 1.848-.766a1 1 0 0 0 -.765-1.847l-1.849.765a1 1 0 1 0 .766 1.848z"/><path d="m45.942 29.343 1.849.765a1 1 0 0 0 .765-1.847l-1.848-.761a1 1 0 1 0 -.766 1.848z"/><path d="m3.444 11.739 1.848.766a1 1 0 1 0 .766-1.848l-1.849-.765a1 1 0 1 0 -.765 1.847z"/><path d="m26 27a7 7 0 1 0 -7-7 7.008 7.008 0 0 0 7 7zm0-12a5 5 0 1 1 -5 5 5.006 5.006 0 0 1 5-5z"/></g></svg>